# This file uses centimeters as units for non-parametric coordinates.

mtllib Arrow.mtl
g default
v -4.352924 -0.008197 0.762232
v -0.025760 -0.008197 0.575981
v -4.272251 0.142491 1.195546
v -0.025760 0.189983 0.575981
v -4.287719 0.055069 -1.348841
v -0.025493 0.189983 -0.537873
v -4.287719 -0.143111 -1.348841
v -0.025493 -0.008197 -0.537873
v -5.246073 0.189983 -0.045623
v 0.438865 0.189983 0.038974
v 0.438865 -0.008197 0.038974
v -5.246073 -0.008197 -0.045623
v -3.523190 -0.055689 1.195546
v -4.342134 -0.008197 -0.030221
v -3.538658 -0.143111 -1.348841
v -3.538658 0.055069 -1.348841
v -4.423438 0.354880 -0.034525
v -3.523190 0.142491 1.195546
v -3.990495 -0.008197 -0.024230
v -3.793132 -0.004499 0.217044
v -3.793132 0.193681 0.217044
v -3.983410 0.284518 -0.025134
v -3.777531 0.136221 -0.269516
v -3.777531 -0.061958 -0.269516
v -3.611134 -0.008197 -0.017767
v -2.998112 -0.008197 0.762232
v -2.998112 0.189983 0.762232
v -3.769907 0.363927 0.002003
v -2.998112 0.189983 -0.762232
v -2.998112 -0.008197 -0.762232
v -3.238910 -0.008197 -0.011425
v -2.689663 -0.008197 0.762232
v -2.689663 0.189983 0.762232
v -3.385868 0.350699 -0.002759
v -2.689663 0.189983 -0.762232
v -2.689663 -0.008197 -0.762232
v -2.844403 -0.008197 -0.004703
v -2.670060 -0.008231 0.209971
v -2.670060 0.189949 0.209971
v -2.986072 0.302469 0.004450
v -2.637971 0.149999 -0.227303
v -2.637971 -0.048181 -0.227303
v -2.462562 -0.008197 0.001802
v -2.123434 -0.006352 0.588522
v -2.123434 0.191828 0.588522
v -2.462563 0.189983 0.001802
v -2.130843 0.190542 -0.529581
v -2.130843 -0.007638 -0.529581
v -2.061923 -0.008197 0.008628
v -1.791440 -0.006352 0.588522
v -1.791440 0.191828 0.588522
v -2.061924 0.189983 0.008628
v -1.798849 0.190542 -0.529581
v -1.798849 -0.007638 -0.529581
v -1.653344 -0.008197 0.015590
v -1.681643 -0.008197 0.150262
v -1.681643 0.189983 0.150262
v -1.653344 0.189983 0.015590
v -1.660857 0.189983 -0.106506
v -1.660857 -0.008197 -0.106506
v -1.196667 -0.008197 0.023371
v -1.076292 -0.006951 0.422847
v -1.076292 0.191228 0.422847
v -1.196667 0.189983 0.023371
v -1.120020 0.191969 -0.320111
v -1.120020 -0.006211 -0.320111
v -0.757397 -0.008197 0.030855
v -0.712285 -0.006951 0.422847
v -0.712285 0.191228 0.422847
v -0.757397 0.189983 0.030855
v -0.756013 0.191969 -0.320111
v -0.756013 -0.006211 -0.320111
v -0.352982 -0.008197 0.037745
v -0.408444 -0.008197 0.270137
v -0.408444 0.189983 0.270137
v -0.051339 0.280106 0.049992
v -0.431775 0.189983 -0.186822
v -0.431775 -0.008197 -0.186822
v -4.307908 0.033663 1.320456
v -3.523190 0.034021 1.195546
v -3.793132 0.085210 0.217044
v -2.979231 0.081513 0.924711
v -2.670782 0.081513 0.924711
v -2.670060 0.081479 0.209971
v -2.140545 0.082179 0.749073
v -1.791440 0.083358 0.588522
v -1.681643 0.081513 0.150262
v -1.141041 0.082758 0.518007
v -0.712285 0.082758 0.422847
v -0.408444 0.081513 0.270137
v -0.018942 0.082070 0.669175
v 0.556573 0.081406 0.038689
v -0.021909 0.081442 -0.621854
v -0.431775 0.081513 -0.186822
v -0.756013 0.083499 -0.320111
v -1.232566 0.084303 -0.446729
v -1.660857 0.081513 -0.106506
v -1.798849 0.082072 -0.529581
v -2.213774 0.082072 -0.650975
v -2.637971 0.041529 -0.227303
v -2.675727 0.081630 -0.877030
v -2.984176 0.081630 -0.877030
v -3.777531 0.027751 -0.269516
v -3.538658 -0.053401 -1.348841
v -4.324807 -0.053610 -1.479776
v -5.493674 0.081513 -0.050870
v -3.927058 -0.055689 1.195546
v -4.829508 -0.008197 -0.038525
v -3.942526 -0.143111 -1.348841
v -3.979616 -0.053610 -1.479776
v -3.942526 0.055069 -1.348841
v -4.822423 0.284518 -0.039429
v -3.927058 0.142491 1.195546
v -3.962717 0.033663 1.320456
vt 0.375000 0.000000
vt 0.625000 0.000000
vt 0.375000 0.250000
vt 0.625000 0.250000
vt 0.375000 0.500000
vt 0.625000 0.500000
vt 0.375000 0.750000
vt 0.625000 0.750000
vt 0.375000 1.000000
vt 0.625000 1.000000
vt 0.875000 0.000000
vt 0.875000 0.250000
vt 0.125000 0.000000
vt 0.125000 0.250000
vt 0.257083 0.250000
vt 0.375000 0.367917
vt 0.625000 0.367917
vt 0.742917 0.250000
vt 0.625000 0.882083
vt 0.742917 0.000000
vt 0.257083 0.000000
vt 0.375000 0.882083
vt 0.418352 0.000000
vt 0.418352 1.000000
vt 0.418352 0.882083
vt 0.418352 0.750000
vt 0.418352 0.500000
vt 0.418352 0.367917
vt 0.418352 0.250000
vt 0.435216 0.882083
vt 0.435216 0.000000
vt 0.435216 1.000000
vt 0.435216 0.250000
vt 0.435216 0.367917
vt 0.435216 0.500000
vt 0.435216 0.750000
vt 0.453410 0.882083
vt 0.453409 0.000000
vt 0.453409 1.000000
vt 0.453409 0.250000
vt 0.453409 0.367917
vt 0.453409 0.500000
vt 0.453409 0.750000
vt 0.471261 0.882083
vt 0.471261 0.000000
vt 0.471261 1.000000
vt 0.471261 0.250000
vt 0.471261 0.367917
vt 0.471261 0.500000
vt 0.471261 0.750000
vt 0.490181 0.882083
vt 0.490181 0.000000
vt 0.490181 1.000000
vt 0.490181 0.250000
vt 0.490181 0.367917
vt 0.490181 0.500000
vt 0.490181 0.750000
vt 0.508494 0.882083
vt 0.508494 0.000000
vt 0.508494 1.000000
vt 0.508494 0.250000
vt 0.508494 0.367917
vt 0.508494 0.500000
vt 0.508494 0.750000
vt 0.527708 0.882083
vt 0.527708 0.000000
vt 0.527708 1.000000
vt 0.527708 0.250000
vt 0.527708 0.367917
vt 0.527708 0.500000
vt 0.527708 0.750000
vt 0.547303 0.882083
vt 0.547303 0.000000
vt 0.547303 1.000000
vt 0.547303 0.250000
vt 0.547303 0.367917
vt 0.547303 0.500000
vt 0.547303 0.750000
vt 0.569204 0.882083
vt 0.569204 0.000000
vt 0.569204 1.000000
vt 0.569204 0.250000
vt 0.569204 0.367917
vt 0.569204 0.500000
vt 0.569204 0.750000
vt 0.590271 0.882083
vt 0.590271 0.000000
vt 0.590271 1.000000
vt 0.590271 0.250000
vt 0.590271 0.367917
vt 0.590271 0.500000
vt 0.590271 0.750000
vt 0.609666 0.882083
vt 0.609666 0.000000
vt 0.609666 1.000000
vt 0.609666 0.250000
vt 0.609666 0.367917
vt 0.609666 0.500000
vt 0.609666 0.750000
vt 0.375000 0.113167
vt 0.418352 0.113167
vt 0.435216 0.113167
vt 0.453409 0.113167
vt 0.471261 0.113167
vt 0.490181 0.113167
vt 0.508494 0.113167
vt 0.527708 0.113167
vt 0.547303 0.113167
vt 0.569204 0.113167
vt 0.590271 0.113167
vt 0.609666 0.113167
vt 0.625000 0.113167
vt 0.742917 0.113167
vt 0.625000 0.636833
vt 0.875000 0.113167
vt 0.609666 0.636833
vt 0.590271 0.636833
vt 0.569204 0.636833
vt 0.547303 0.636833
vt 0.527708 0.636833
vt 0.508494 0.636833
vt 0.490181 0.636833
vt 0.471261 0.636833
vt 0.453409 0.636833
vt 0.435216 0.636833
vt 0.418352 0.636833
vt 0.125000 0.113167
vt 0.375000 0.636833
vt 0.257083 0.113167
vt 0.394978 0.000000
vt 0.394978 1.000000
vt 0.394978 0.882083
vt 0.394978 0.750000
vt 0.394978 0.636833
vt 0.394978 0.500000
vt 0.394978 0.367917
vt 0.394978 0.250000
vt 0.394978 0.113167
vn 0.981657 0.178580 0.066777
vn 0.988133 0.002173 0.153584
vn 0.575520 0.021923 0.817494
vn 0.170859 0.668429 0.723885
vn -0.003961 0.976578 -0.215129
vn 0.047133 0.998781 -0.014674
vn 0.073389 0.995818 -0.054408
vn 0.179384 0.967490 -0.178283
vn 0.743306 -0.184659 -0.642960
vn 0.985496 0.001189 -0.169696
vn 0.984815 0.159591 -0.068345
vn -0.083532 0.489175 -0.868177
vn -0.006390 -0.999553 0.029216
vn -0.004686 -0.994956 0.100205
vn -0.019323 -0.995193 0.096004
vn 0.005771 -0.999293 0.037152
vn 0.735764 0.677237 -0.001540
vn 0.999997 -0.001619 -0.001682
vn 0.764649 0.005238 -0.644426
vn 0.633122 0.560774 -0.533563
vn -0.676041 -0.567266 -0.470296
vn -0.944750 0.320552 -0.068515
vn -0.475530 0.877774 0.058170
vn -0.421940 0.809370 -0.408517
vn -0.020687 0.985473 0.168566
vn 0.073787 0.979990 0.184864
vn 0.746625 0.009593 0.665176
vn 0.607543 0.581614 0.540940
vn 0.002018 -0.999218 -0.039483
vn 0.013441 -0.999610 -0.024476
vn -0.747873 -0.096399 0.656806
vn -0.446440 0.801286 0.398287
vn -0.006704 -0.999487 -0.031319
vn -0.012955 -0.998163 0.059184
vn -0.000948 -0.994813 0.101713
vn 0.081465 0.000245 -0.996676
vn 0.065133 0.648977 -0.758015
vn -0.098257 0.966774 -0.235995
vn -0.095923 0.994770 -0.035090
vn -0.101734 0.976941 0.187715
vn 0.063333 0.631346 0.772911
vn -0.066559 -0.531321 0.844552
vn 0.024238 -0.998990 0.037841
vn -0.000583 -1.000000 0.000736
vn -0.475139 -0.006479 0.879887
vn -0.398816 0.608202 0.686321
vn -0.076929 0.953506 0.291391
vn -0.110490 0.993806 -0.011852
vn -0.147330 0.915530 -0.374298
vn -0.446355 0.126185 -0.885914
vn -0.357036 0.532109 -0.767714
vn 0.022049 -0.999317 0.029649
vn -0.013904 -0.999899 -0.002836
vn -0.000008 -1.000000 0.000002
vn 0.866915 0.001766 0.498453
vn 0.751584 0.565382 0.339802
vn 0.092172 0.985080 0.145335
vn 0.059081 0.998253 -0.000145
vn 0.137171 0.983124 -0.121042
vn 0.848317 0.030060 -0.528635
vn 0.674751 0.545502 -0.497131
vn -0.019295 -0.999806 -0.003941
vn -0.010138 -0.999856 0.013592
vn 0.000573 -1.000000 0.000549
vn 0.304162 -0.004996 0.952607
vn 0.208520 0.654317 0.726903
vn 0.152749 0.985741 0.070580
vn 0.215803 0.976419 0.005915
vn 0.171876 0.980821 -0.091919
vn 0.395702 -0.323347 -0.859574
vn 0.250645 0.660211 -0.708024
vn -0.017689 -0.999410 0.029435
vn 0.018207 -0.999523 0.024950
vn 0.000105 -0.999995 0.003012
vn -0.392958 0.005179 0.919542
vn -0.336791 0.575158 0.745497
vn 0.007474 0.999962 0.004569
vn 0.021093 0.999465 -0.024992
vn 0.003564 0.999024 -0.044023
vn -0.351080 0.203284 -0.914012
vn -0.214551 0.538125 -0.815101
vn 0.018109 -0.999558 0.023562
vn -0.000222 -0.999999 0.001122
vn -0.000127 -0.999995 0.003158
vn 0.754770 0.011134 0.655895
vn 0.704975 0.339938 0.622457
vn 0.000127 0.999995 -0.003158
vn 0.000222 0.999999 -0.001122
vn 0.000021 0.999999 0.001031
vn 0.687308 0.000000 -0.726367
vn 0.662905 0.256005 -0.703576
vn -0.000021 -0.999999 -0.001031
vn 0.000115 -1.000000 0.000131
vn -0.000311 -0.999996 0.002616
vn 0.170114 -0.008078 0.985391
vn 0.153309 0.447631 0.880978
vn 0.000311 0.999996 -0.002616
vn -0.000115 1.000000 -0.000131
vn -0.000334 0.999997 0.002299
vn 0.230118 -0.026817 -0.972793
vn 0.176781 0.560351 -0.809169
vn 0.000335 -0.999997 -0.002299
vn 0.000407 -1.000000 -0.000864
vn 0.000106 -0.999996 0.002949
vn -0.270413 0.009205 0.962701
vn -0.243764 0.449678 0.859284
vn -0.000106 0.999996 -0.002949
vn -0.000407 1.000000 0.000864
vn -0.000317 0.999986 0.005323
vn -0.231262 0.030880 -0.972401
vn -0.188697 0.567694 -0.801322
vn 0.000317 -0.999986 -0.005323
vn -0.000705 -0.999999 -0.000729
vn -0.000332 -0.999996 0.002883
vn 0.275267 0.000000 0.961368
vn 0.265737 0.217254 0.939247
vn -0.020576 0.999403 0.027766
vn -0.034138 0.999416 0.001602
vn -0.021564 0.999368 -0.028249
vn 0.255702 -0.005642 -0.966739
vn 0.242902 0.272701 -0.930931
vn -0.000487 -0.999987 -0.005080
vn -0.000429 -1.000000 -0.000096
vn -0.000393 -1.000000 0.000573
vn -0.278847 -0.001527 0.960334
vn -0.261534 0.208706 0.942360
vn -0.002024 0.989735 0.142903
vn 0.010558 0.999944 0.000799
vn 0.000753 0.990999 -0.133865
vn -0.335801 0.000162 -0.941933
vn -0.313261 0.187924 -0.930888
vn -0.000542 -1.000000 -0.000811
vn 0.000000 -1.000000 0.000000
vn 0.000000 -1.000000 0.000000
vn -0.674182 0.004553 0.738551
vn -0.646434 0.284527 0.707932
vn 0.045441 0.984984 0.166559
vn 0.042412 0.999092 -0.003981
vn 0.038838 0.987960 -0.149753
vn -0.693715 0.001756 -0.720247
vn -0.670180 0.258211 -0.695835
vn 0.000000 -1.000000 0.000000
vn -0.074375 -0.896966 0.435798
vn 0.914806 -0.320061 0.246353
vn 0.558978 -0.671948 0.485828
vn -0.368106 -0.681264 0.632754
vn 0.708245 -0.632433 0.313717
vn 0.230652 -0.721728 0.652617
vn -0.318875 -0.651052 0.688804
vn 0.699086 -0.393691 0.596897
vn 0.145004 -0.517835 0.843102
vn -0.236694 -0.520531 0.820380
vn 0.268683 -0.252695 0.929492
vn -0.279528 -0.254359 0.925832
vn -0.634814 -0.336187 0.695693
vn 0.565781 -0.652256 0.504435
vn 0.668734 -0.743502 0.000734
vn 0.591161 -0.634266 -0.498233
vn -0.340442 -0.233557 -0.910797
vn -0.660074 -0.307699 -0.685291
vn 0.245295 -0.308945 -0.918903
vn -0.182375 -0.638935 -0.747330
vn 0.191236 -0.621613 -0.759622
vn 0.656211 -0.302988 -0.691075
vn -0.291362 -0.624790 -0.724393
vn 0.422220 -0.658860 -0.622603
vn 0.790904 -0.488976 -0.367931
vn -0.388270 -0.544217 -0.743690
vn 0.963764 -0.234491 -0.127171
vn 0.893490 -0.335295 -0.298754
vn 0.059810 -0.718728 -0.692715
vn -0.428483 -0.868925 -0.247733
vn -0.321058 -0.945819 -0.048455
vn -0.190621 -0.968440 0.160586
vn -0.023085 -0.995905 0.087409
vn -0.081469 -0.995496 0.048488
vn -0.000951 -0.994781 0.102032
vn 0.000000 0.001364 -0.999999
vn 0.000000 -0.825560 -0.564314
vn 0.000000 0.769473 -0.638679
vn -0.121452 0.991204 -0.052574
vn -0.117383 0.968927 -0.217719
vn -0.121653 0.978470 0.166723
vn -0.202112 -0.802299 0.561665
vn 0.000000 0.753976 0.656901
vn -0.165398 -0.968101 0.188212
s 1
g pCube1
usemtl initialShadingGroup
f 18/29/1 80/101/2 81/102/3 21/33/4
s 2
f 16/27/5 17/28/6 22/34/7 23/35/8
s 3
f 103/125/9 104/126/10 16/27/11 23/35/12
s 4
f 14/25/13 15/26/14 24/36/15 19/30/16
s 5
f 10/18/17 92/113/18 93/115/19 6/12/20
s 6
f 105/127/21 106/129/22 9/15/23 5/14/24
s 2
f 17/28/6 18/29/25 21/33/26 22/34/7
s 5
f 91/112/27 92/113/18 10/18/17 4/4/28
s 4
f 13/24/29 14/25/13 19/30/16 20/32/30
s 6
f 9/15/23 106/129/22 79/100/31 3/3/32
s 4
f 107/131/33 108/132/34 14/25/13 13/24/29
f 108/132/34 109/133/35 15/26/14 14/25/13
s 3
f 110/134/36 111/135/37 16/27/11 104/126/10
s 2
f 111/135/38 112/136/39 17/28/6 16/27/5
f 112/136/39 113/137/40 18/29/25 17/28/6
s 1
f 113/137/41 114/138/42 80/101/2 18/29/1
s 4
f 20/32/30 19/30/16 25/37/43 26/39/44
s 1
f 21/33/4 81/102/3 82/103/45 27/40/46
s 2
f 22/34/7 21/33/26 27/40/47 28/41/48
f 23/35/8 22/34/7 28/41/48 29/42/49
s 3
f 102/124/50 103/125/9 23/35/12 29/42/51
s 4
f 19/30/16 24/36/15 30/43/52 25/37/43
f 26/39/44 25/37/43 31/44/53 32/46/54
s 1
f 27/40/46 82/103/45 83/104/55 33/47/56
s 2
f 28/41/48 27/40/47 33/47/57 34/48/58
f 29/42/49 28/41/48 34/48/58 35/49/59
s 3
f 101/123/60 102/124/50 29/42/51 35/49/61
s 4
f 25/37/43 30/43/52 36/50/62 31/44/53
f 32/46/54 31/44/53 37/51/63 38/53/64
s 1
f 33/47/56 83/104/55 84/105/65 39/54/66
s 2
f 34/48/58 33/47/57 39/54/67 40/55/68
f 35/49/59 34/48/58 40/55/68 41/56/69
s 3
f 100/122/70 101/123/60 35/49/61 41/56/71
s 4
f 31/44/53 36/50/62 42/57/72 37/51/63
f 38/53/64 37/51/63 43/58/73 44/60/74
s 1
f 39/54/66 84/105/65 85/106/75 45/61/76
s 2
f 40/55/68 39/54/67 45/61/77 46/62/78
f 41/56/69 40/55/68 46/62/78 47/63/79
s 3
f 99/121/80 100/122/70 41/56/71 47/63/81
s 4
f 37/51/63 42/57/72 48/64/82 43/58/73
f 44/60/74 43/58/73 49/65/83 50/67/84
s 1
f 45/61/76 85/106/75 86/107/85 51/68/86
s 2
f 46/62/78 45/61/77 51/68/87 52/69/88
f 47/63/79 46/62/78 52/69/88 53/70/89
s 3
f 98/120/90 99/121/80 47/63/81 53/70/91
s 4
f 43/58/73 48/64/82 54/71/92 49/65/83
f 50/67/84 49/65/83 55/72/93 56/74/94
s 1
f 51/68/86 86/107/85 87/108/95 57/75/96
s 2
f 52/69/88 51/68/87 57/75/97 58/76/98
f 53/70/89 52/69/88 58/76/98 59/77/99
s 3
f 97/119/100 98/120/90 53/70/91 59/77/101
s 4
f 49/65/83 54/71/92 60/78/102 55/72/93
f 56/74/94 55/72/93 61/79/103 62/81/104
s 1
f 57/75/96 87/108/95 88/109/105 63/82/106
s 2
f 58/76/98 57/75/97 63/82/107 64/83/108
f 59/77/99 58/76/98 64/83/108 65/84/109
s 3
f 96/118/110 97/119/100 59/77/101 65/84/111
s 4
f 55/72/93 60/78/102 66/85/112 61/79/103
f 62/81/104 61/79/103 67/86/113 68/88/114
s 1
f 63/82/106 88/109/105 89/110/115 69/89/116
s 2
f 64/83/108 63/82/107 69/89/117 70/90/118
f 65/84/109 64/83/108 70/90/118 71/91/119
s 3
f 95/117/120 96/118/110 65/84/111 71/91/121
s 4
f 61/79/103 66/85/112 72/92/122 67/86/113
f 68/88/114 67/86/113 73/93/123 74/95/124
s 1
f 69/89/116 89/110/115 90/111/125 75/96/126
s 2
f 70/90/118 69/89/117 75/96/127 76/97/128
f 71/91/119 70/90/118 76/97/128 77/98/129
s 3
f 94/116/130 95/117/120 71/91/121 77/98/131
s 4
f 67/86/113 72/92/122 78/99/132 73/93/123
f 74/95/124 73/93/123 11/19/133 2/10/134
s 1
f 75/96/126 90/111/125 91/112/135 4/4/136
s 2
f 76/97/128 75/96/127 4/4/137 10/17/138
f 77/98/129 76/97/128 10/17/138 6/6/139
s 3
f 93/114/140 94/116/130 77/98/131 6/6/141
s 4
f 73/93/123 78/99/132 8/8/142 11/19/133
s 1
f 114/138/42 107/130/143 13/23/144 80/101/2
f 81/102/3 80/101/2 13/23/144 20/31/145
f 82/103/45 81/102/3 20/31/145 26/38/146
f 83/104/55 82/103/45 26/38/146 32/45/147
f 84/105/65 83/104/55 32/45/147 38/52/148
f 85/106/75 84/105/65 38/52/148 44/59/149
f 86/107/85 85/106/75 44/59/149 50/66/150
f 87/108/95 86/107/85 50/66/150 56/73/151
f 88/109/105 87/108/95 56/73/151 62/80/152
f 89/110/115 88/109/105 62/80/152 68/87/153
f 90/111/125 89/110/115 68/87/153 74/94/154
f 91/112/135 90/111/125 74/94/154 2/2/155
s 5
f 2/2/156 11/20/157 92/113/18 91/112/27
f 93/115/19 92/113/18 11/20/157 8/11/158
s 3
f 78/99/159 94/116/130 93/114/140 8/8/160
f 72/92/161 95/117/120 94/116/130 78/99/159
f 66/85/162 96/118/110 95/117/120 72/92/161
f 60/78/163 97/119/100 96/118/110 66/85/162
f 54/71/164 98/120/90 97/119/100 60/78/163
f 48/64/165 99/121/80 98/120/90 54/71/164
f 42/57/166 100/122/70 99/121/80 48/64/165
f 36/50/167 101/123/60 100/122/70 42/57/166
f 30/43/168 102/124/50 101/123/60 36/50/167
f 24/36/169 103/125/9 102/124/50 30/43/168
f 15/26/170 104/126/10 103/125/9 24/36/169
f 109/133/171 110/134/36 104/126/10 15/26/170
s 6
f 7/13/172 12/21/173 106/129/22 105/127/21
f 79/100/31 106/129/22 12/21/173 1/1/174
s 4
f 12/22/175 108/132/34 107/131/33 1/9/176
f 7/7/177 109/133/35 108/132/34 12/22/175
s 3
f 105/128/178 110/134/36 109/133/171 7/7/179
f 5/5/180 111/135/37 110/134/36 105/128/178
s 2
f 9/16/181 112/136/39 111/135/38 5/5/182
f 3/3/183 113/137/40 112/136/39 9/16/181
s 1
f 79/100/184 114/138/42 113/137/41 3/3/185
f 1/1/186 107/130/143 114/138/42 79/100/184
